<?xml version="1.0" encoding="UTF-8" standalone="no"?>
<!-- Generator: Adobe Illustrator 12.0.1, SVG Export Plug-In . SVG Version: 6.00 Build 51448)  -->
<svg
   xmlns:dc="http://purl.org/dc/elements/1.1/"
   xmlns:cc="http://creativecommons.org/ns#"
   xmlns:rdf="http://www.w3.org/1999/02/22-rdf-syntax-ns#"
   xmlns:svg="http://www.w3.org/2000/svg"
   xmlns="http://www.w3.org/2000/svg"
   xmlns:sodipodi="http://sodipodi.sourceforge.net/DTD/sodipodi-0.dtd"
   xmlns:inkscape="http://www.inkscape.org/namespaces/inkscape"
   version="1.1"
   id="Layer_1"
   width="344.906"
   height="178.331"
   viewBox="0 0 344.906 178.331"
   style="overflow:visible;enable-background:new 0 0 344.906 178.331;"
   xml:space="preserve"
   sodipodi:version="0.32"
   inkscape:version="0.46"
   sodipodi:docname="Saccharose.svg"
   inkscape:output_extension="org.inkscape.output.svg.inkscape"><metadata
   id="metadata138"><rdf:RDF><cc:Work
       rdf:about=""><dc:format>image/svg+xml</dc:format><dc:type
         rdf:resource="http://purl.org/dc/dcmitype/StillImage" /></cc:Work></rdf:RDF></metadata><defs
   id="defs136"><inkscape:perspective
   sodipodi:type="inkscape:persp3d"
   inkscape:vp_x="0 : 89.165497 : 1"
   inkscape:vp_y="0 : 1000 : 0"
   inkscape:vp_z="344.90601 : 89.165497 : 1"
   inkscape:persp3d-origin="172.453 : 59.443665 : 1"
   id="perspective140" />
	

	
	

	

	
	

	
	

	
	

	
	

	

	
	

	

	
	

	
	

	
	

	
	

	

	
	

	
</defs><sodipodi:namedview
   inkscape:window-height="675"
   inkscape:window-width="661"
   inkscape:pageshadow="2"
   inkscape:pageopacity="0.0"
   guidetolerance="10.0"
   gridtolerance="10.0"
   objecttolerance="10.0"
   borderopacity="1.0"
   bordercolor="#666666"
   pagecolor="#ffffff"
   id="base"
   showgrid="false"
   inkscape:zoom="1.5772413"
   inkscape:cx="172.453"
   inkscape:cy="89.165497"
   inkscape:window-x="22"
   inkscape:window-y="22"
   inkscape:current-layer="Layer_1" />
<path
   style="fill:#231f20"
   d="M 245.16695,124.4756 L 245.9735,126.8981 L 248.8235,129.32155 L 197.761,129.32155 L 196.95445,126.8981 L 199.70945,124.4756 L 245.16695,124.4756 z"
   id="polygon3" />
<path
   style="fill:#231f20"
   d="M 172.44445,86.1431 L 172.49195,84.4331 L 173.63195,84.7656 L 199.70945,124.4756 L 196.95445,126.8981 L 196.14695,133.35905 L 172.44445,86.1431 z"
   id="polygon5" />
<path
   style="fill:#231f20"
   d="M 269.29695,84.7656 L 270.48445,84.4331 L 269.67695,87.8531 L 248.8235,129.32155 L 245.9735,126.8981 L 246.78195,119.0606 L 269.29695,84.7656 z"
   id="polygon7" />
<path
   style="fill:#231f20"
   d="M 211.251,64.0081 L 211.9635,65.4331 L 173.63195,84.7656 L 172.49195,84.4331 L 173.29945,83.1506 L 211.251,64.0081 z"
   id="polygon9" />
<path
   id="path13"
   d="M 213.3011,60.95385 C 213.3011,58.2435 214.0288,56.1231 215.48325,54.59075 C 216.9396,53.05745 218.81775,52.2908 221.12055,52.2908 C 222.62725,52.2908 223.9867,52.65085 225.197,53.37095 C 226.40635,54.092 227.3288,55.0952 227.96435,56.3834 C 228.5999,57.6716 228.9172,59.1327 228.9172,60.7648 C 228.9172,62.42065 228.5828,63.9017 227.914,65.20795 C 227.2452,66.5142 226.299,67.5041 225.07445,68.17575 C 223.848,68.8474 222.52655,69.1837 221.10915,69.1837 C 219.5711,69.1837 218.19835,68.81225 216.98805,68.0703 C 215.7768,67.32835 214.86005,66.31375 214.23685,65.0303 C 213.61365,63.74685 213.3011,62.3874 213.3011,60.95385 z M 215.52695,60.9814 C 215.52695,62.9479 216.0561,64.49735 217.11345,65.62975 C 218.1727,66.7612 219.49985,67.3274 221.0968,67.3274 C 222.72225,67.3274 224.06175,66.7555 225.11245,65.61265 C 226.16315,64.4698 226.68945,62.84815 226.68945,60.7477 C 226.68945,59.4196 226.46525,58.25965 226.01495,57.2688 C 225.56465,56.27795 224.9082,55.5094 224.0437,54.9641 C 223.17825,54.4188 222.2064,54.14615 221.131,54.14615 C 219.60055,54.14615 218.2848,54.6715 217.1809,55.72125 C 216.0789,56.771 215.52695,58.5247 215.52695,60.9814 z"
   style="fill:#231f20" />
<path
   style="fill:#231f20"
   d="M 230.2985,65.3856 L 231.011,63.9606 L 271.29195,83.9581 L 270.48445,84.4331 L 269.29695,84.7656 L 230.2985,65.3856 z"
   id="polygon15" />
<path
   id="path19"
   d="M 177.66375,39.32995 L 179.8307,39.87525 C 179.3785,41.65175 178.5653,43.00645 177.39015,43.9384 C 176.215,44.87035 174.77765,45.33775 173.08,45.33775 C 171.3225,45.33775 169.8937,44.9796 168.79265,44.26235 C 167.6916,43.54605 166.8537,42.50675 166.27895,41.14825 C 165.7042,39.7888 165.4173,38.32865 165.4173,36.7697 C 165.4173,35.0692 165.74125,33.58435 166.3901,32.318 C 167.03895,31.05165 167.9614,30.08835 169.15935,29.4319 C 170.35635,28.77545 171.67305,28.4458 173.11135,28.4458 C 174.7425,28.4458 176.11335,28.8619 177.22485,29.6941 C 178.33635,30.52725 179.11155,31.6967 179.54855,33.20625 L 177.42625,33.7069 C 177.04815,32.5194 176.5,31.6549 175.7818,31.1134 C 175.06265,30.5719 174.15825,30.30115 173.06955,30.30115 C 171.81745,30.30115 170.77055,30.60135 169.92885,31.2027 C 169.0881,31.80405 168.4972,32.6106 168.15615,33.62425 C 167.8151,34.6379 167.64505,35.68195 167.64505,36.7583 C 167.64505,38.14625 167.84645,39.3575 168.2502,40.393 C 168.65395,41.4285 169.28095,42.2018 170.1331,42.71385 C 170.98525,43.2259 171.90675,43.4824 172.8995,43.4824 C 174.10695,43.4824 175.1282,43.13375 175.96515,42.4355 C 176.8021,41.73725 177.3664,40.7027 177.66375,39.32995 z"
   style="fill:#231f20" /><path
   id="path21"
   d="M 182.58,45.0556 L 182.58,28.72795 L 184.74695,28.72795 L 184.74695,35.4378 L 193.1934,35.4378 L 193.1934,28.72795 L 195.36035,28.72795 L 195.36035,45.05655 L 193.1934,45.05655 L 193.1934,37.36725 L 184.74695,37.36725 L 184.74695,45.05655 L 182.58,45.05655 L 182.58,45.0556 z"
   style="fill:#231f20" />
<path
   id="path25"
   d="M 205.72485,47.89135 L 205.72485,49.33155 L 197.6204,49.33155 C 197.609,48.9696 197.6679,48.6219 197.7971,48.2875 C 198.00515,47.7365 198.33575,47.19405 198.79365,46.66015 C 199.24965,46.12625 199.90515,45.5097 200.7592,44.8105 C 202.0854,43.71515 202.98505,42.8497 203.4572,42.2132 C 203.9303,41.5767 204.16685,40.97345 204.16685,40.40535 C 204.16685,39.81065 203.9531,39.31 203.52465,38.90055 C 203.0981,38.49205 202.54045,38.2878 201.85265,38.2878 C 201.12495,38.2878 200.5445,38.50535 200.10845,38.9414 C 199.6724,39.37745 199.452,39.9807 199.4463,40.75115 L 197.90255,40.58775 C 198.008,39.43255 198.407,38.55285 199.09955,37.94865 C 199.7921,37.34255 200.72025,37.04045 201.88685,37.04045 C 203.06295,37.04045 203.99585,37.3663 204.6808,38.018 C 205.36765,38.6697 205.7106,39.4772 205.7106,40.4405 C 205.7106,40.9307 205.61085,41.41235 205.40945,41.88545 C 205.20805,42.35855 204.8746,42.8573 204.4091,43.38075 C 203.94265,43.9042 203.1703,44.6224 202.0911,45.53535 C 201.18765,46.29345 200.6072,46.80645 200.34975,47.0772 C 200.0923,47.34605 199.87855,47.61775 199.7104,47.8904 L 205.72485,47.8904 L 205.72485,47.89135 z"
   style="fill:#231f20" />
<path
   id="path29"
   d="M 206.9855,37.10885 C 206.9855,34.3985 207.7132,32.2781 209.1686,30.74575 C 210.624,29.21245 212.5031,28.4458 214.80495,28.4458 C 216.3126,28.4458 217.6711,28.80585 218.8814,29.52595 C 220.0917,30.247 221.01415,31.2502 221.64875,32.5384 C 222.2843,33.82565 222.6016,35.2877 222.6016,36.9198 C 222.6016,38.57565 222.2672,40.0567 221.5984,41.36295 C 220.93055,42.6692 219.98435,43.6591 218.75885,44.33075 C 217.53335,45.0024 216.2119,45.3387 214.79355,45.3387 C 213.25645,45.3387 211.88275,44.96725 210.67245,44.2253 C 209.46215,43.48335 208.5454,42.46875 207.92125,41.1853 C 207.2971,39.9009 206.9855,38.5424 206.9855,37.10885 z M 209.2123,37.1364 C 209.2123,39.1029 209.74145,40.65235 210.79975,41.78475 C 211.85805,42.91715 213.18615,43.4824 214.78215,43.4824 C 216.40855,43.4824 217.7471,42.9105 218.79875,41.76765 C 219.8485,40.6248 220.3748,39.00315 220.3748,36.9027 C 220.3748,35.5746 220.1506,34.41465 219.7003,33.4238 C 219.25095,32.43295 218.5945,31.6644 217.72905,31.1191 C 216.8636,30.5738 215.8927,30.30115 214.81635,30.30115 C 213.28685,30.30115 211.97015,30.8265 210.8672,31.87625 C 209.76425,32.926 209.2123,34.68065 209.2123,37.1364 z"
   style="fill:#231f20" /><path
   id="path31"
   d="M 225.46205,45.0556 L 225.46205,28.72795 L 227.629,28.72795 L 227.629,35.4378 L 236.07545,35.4378 L 236.07545,28.72795 L 238.2424,28.72795 L 238.2424,45.05655 L 236.07545,45.05655 L 236.07545,37.36725 L 227.629,37.36725 L 227.629,45.05655 L 225.46205,45.05655 L 225.46205,45.0556 z"
   style="fill:#231f20" />
<path
   style="fill:#231f20"
   d="M 171.68445,47.4306 L 173.29945,47.4306 L 173.29945,83.1506 L 172.49195,84.4331 L 171.68445,84.2431 L 171.68445,47.4306 z"
   id="polygon33" />
<path
   id="path37"
   d="M 189.17015,165.64385 C 189.17015,162.9335 189.89785,160.8131 191.3523,159.28075 C 192.80865,157.74745 194.6868,156.9808 196.9896,156.9808 C 198.4963,156.9808 199.85575,157.34085 201.06605,158.06095 C 202.2754,158.782 203.19785,159.7852 203.8334,161.0734 C 204.46895,162.3616 204.78625,163.8227 204.78625,165.4548 C 204.78625,167.11065 204.45185,168.5917 203.78305,169.89795 C 203.11425,171.2042 202.16805,172.1941 200.9435,172.86575 C 199.71705,173.5374 198.3956,173.8737 196.9782,173.8737 C 195.44015,173.8737 194.0674,173.50225 192.8571,172.7603 C 191.64585,172.01835 190.7291,171.00375 190.1059,169.7203 C 189.4827,168.43685 189.17015,167.0774 189.17015,165.64385 z M 191.39695,165.6714 C 191.39695,167.6379 191.9261,169.18735 192.98345,170.31975 C 194.0427,171.4512 195.36985,172.0174 196.9668,172.0174 C 198.59225,172.0174 199.93175,171.4455 200.98245,170.30265 C 202.03315,169.1598 202.55945,167.53815 202.55945,165.4377 C 202.55945,164.1096 202.33525,162.94965 201.88495,161.9588 C 201.43465,160.96795 200.7782,160.1994 199.9137,159.6541 C 199.04825,159.1088 198.0764,158.83615 197.001,158.83615 C 195.47055,158.83615 194.1548,159.3615 193.0509,160.41125 C 191.94795,161.46195 191.39695,163.2147 191.39695,165.6714 z"
   style="fill:#231f20" /><path
   id="path39"
   d="M 207.64765,173.5906 L 207.64765,157.262 L 209.8146,157.262 L 209.8146,163.97185 L 218.26105,163.97185 L 218.26105,157.262 L 220.428,157.262 L 220.428,173.5906 L 218.26105,173.5906 L 218.26105,165.9013 L 209.8146,165.9013 L 209.8146,173.5906 L 207.64765,173.5906 z"
   style="fill:#231f20" />
<path
   style="fill:#231f20"
   d="M 197.761,154.77965 L 196.14695,154.77965 L 196.14695,133.35905 L 196.95445,126.8981 L 197.761,129.32155 L 197.761,154.77965 z"
   id="polygon41" />
<path
   id="path45"
   d="M 222.59305,98.1606 L 222.59305,81.832 L 224.76,81.832 L 224.76,88.54185 L 233.20645,88.54185 L 233.20645,81.832 L 235.3734,81.832 L 235.3734,98.1606 L 233.20645,98.1606 L 233.20645,90.4713 L 224.76,90.4713 L 224.76,98.1606 L 222.59305,98.1606 z"
   style="fill:#231f20" /><path
   id="path47"
   d="M 238.3165,90.21385 C 238.3165,87.5035 239.0442,85.3831 240.49865,83.85075 C 241.955,82.31745 243.83315,81.5508 246.13595,81.5508 C 247.64265,81.5508 249.0021,81.91085 250.2124,82.63095 C 251.42175,83.352 252.3442,84.3552 252.97975,85.6434 C 253.6153,86.9316 253.9326,88.3927 253.9326,90.0248 C 253.9326,91.68065 253.5982,93.1617 252.9294,94.46795 C 252.2606,95.7742 251.3144,96.7641 250.08985,97.43575 C 248.8634,98.1074 247.54195,98.4437 246.12455,98.4437 C 244.5865,98.4437 243.21375,98.07225 242.00345,97.3303 C 240.7922,96.58835 239.87545,95.57375 239.25225,94.2903 C 238.62905,93.00685 238.3165,91.64645 238.3165,90.21385 z M 240.54235,90.2414 C 240.54235,92.2079 241.0715,93.75735 242.12885,94.88975 C 243.1881,96.0212 244.51525,96.5874 246.1122,96.5874 C 247.73765,96.5874 249.07715,96.0155 250.12785,94.87265 C 251.17855,93.7298 251.70485,92.10815 251.70485,90.0077 C 251.70485,88.6796 251.48065,87.51965 251.03035,86.5288 C 250.58005,85.53795 249.9236,84.7694 249.0591,84.2241 C 248.19365,83.6788 247.2218,83.40615 246.1464,83.40615 C 244.61595,83.40615 243.3002,83.9315 242.1963,84.98125 C 241.0943,86.031 240.54235,87.7847 240.54235,90.2414 z"
   style="fill:#231f20" />
<path
   style="fill:#231f20"
   d="M 245.16695,100.58405 L 246.78195,100.58405 L 246.78195,119.0606 L 245.9735,126.8981 L 245.16695,124.4756 L 245.16695,100.58405 z"
   id="polygon49" />
<path
   id="path53"
   d="M 275.70375,125.39995 L 277.8707,125.94525 C 277.41755,127.72175 276.6034,129.07645 275.4292,130.0084 C 274.255,130.94035 272.81765,131.40775 271.12,131.40775 C 269.3625,131.40775 267.9337,131.0496 266.83265,130.33235 C 265.73065,129.61605 264.8937,128.57675 264.31895,127.21825 C 263.74515,125.8588 263.45825,124.39865 263.45825,122.8397 C 263.45825,121.1392 263.7822,119.65435 264.4301,118.388 C 265.078,117.12165 266.0014,116.15835 267.1984,115.5019 C 268.3954,114.84545 269.7121,114.5158 271.1504,114.5158 C 272.78155,114.5158 274.1524,114.9319 275.2639,115.7641 C 276.3773,116.59725 277.1506,117.7667 277.58855,119.27625 L 275.46625,119.7769 C 275.08815,118.5894 274.53905,117.7249 273.82085,117.1834 C 273.10265,116.6419 272.1973,116.37115 271.1086,116.37115 C 269.8565,116.37115 268.8096,116.67135 267.96885,117.2727 C 267.12715,117.87405 266.53625,118.6806 266.1952,119.69425 C 265.8551,120.70695 265.68505,121.75195 265.68505,122.8283 C 265.68505,124.21625 265.88645,125.4275 266.2902,126.463 C 266.69395,127.4985 267.3219,128.2718 268.1731,128.78385 C 269.0243,129.2959 269.94675,129.5524 270.93855,129.5524 C 272.146,129.5524 273.1682,129.20375 274.00515,128.5055 C 274.8421,127.80725 275.40735,126.7727 275.70375,125.39995 z"
   style="fill:#231f20" /><path
   id="path55"
   d="M 280.62095,131.1256 L 280.62095,114.797 L 282.7879,114.797 L 282.7879,121.50685 L 291.23435,121.50685 L 291.23435,114.797 L 293.4013,114.797 L 293.4013,131.1256 L 291.23435,131.1256 L 291.23435,123.4363 L 282.7879,123.4363 L 282.7879,131.1256 L 280.62095,131.1256 z"
   style="fill:#231f20" />
<path
   id="path59"
   d="M 303.76485,133.9604 L 303.76485,135.4006 L 295.6604,135.4006 C 295.649,135.03865 295.7079,134.69095 295.8371,134.35655 C 296.0442,133.80555 296.37575,133.2631 296.8327,132.7292 C 297.28965,132.1953 297.94515,131.57875 298.7992,130.87955 C 300.1254,129.7842 301.0241,128.91875 301.4972,128.28225 C 301.9703,127.64575 302.20685,127.0425 302.20685,126.4744 C 302.20685,125.8797 301.99215,125.37905 301.5656,124.9696 C 301.13715,124.5611 300.58045,124.35685 299.89265,124.35685 C 299.16495,124.35685 298.5845,124.5744 298.14845,125.01045 C 297.7124,125.4465 297.492,126.04975 297.4863,126.8202 L 295.94255,126.6568 C 296.048,125.5016 296.447,124.6219 297.13955,124.0177 C 297.83115,123.4116 298.76025,123.1095 299.92685,123.1095 C 301.1039,123.1095 302.03585,123.43535 302.72175,124.08705 C 303.40765,124.73875 303.7506,125.54625 303.7506,126.50955 C 303.7506,126.99975 303.6499,127.4814 303.44945,127.9545 C 303.249,128.4276 302.9146,128.92635 302.4491,129.4498 C 301.98265,129.97325 301.20935,130.69145 300.1311,131.6044 C 299.2286,132.3625 298.6472,132.8755 298.38975,133.14625 C 298.1323,133.4151 297.91855,133.6868 297.7504,133.95945 L 303.76485,133.95945 L 303.76485,133.9604 z"
   style="fill:#231f20" />
<path
   id="path63"
   d="M 305.0255,123.17885 C 305.0255,120.4685 305.7532,118.3481 307.2086,116.81575 C 308.664,115.28245 310.5431,114.5158 312.84495,114.5158 C 314.3526,114.5158 315.71205,114.87585 316.9214,115.59595 C 318.13075,116.317 319.05415,117.3202 319.6897,118.6084 C 320.3243,119.89565 320.6416,121.3577 320.6416,122.9898 C 320.6416,124.64565 320.3072,126.1267 319.63935,127.43295 C 318.97055,128.7392 318.0234,129.7291 316.79885,130.40075 C 315.57335,131.0724 314.25095,131.4087 312.83355,131.4087 C 311.29645,131.4087 309.92275,131.03725 308.71245,130.2953 C 307.50215,129.55335 306.5854,128.53875 305.96125,127.2553 C 305.33805,125.96995 305.0255,124.6124 305.0255,123.17885 z M 307.2523,123.2064 C 307.2523,125.1729 307.78145,126.72235 308.83975,127.85475 C 309.89805,128.98715 311.22615,129.5524 312.82215,129.5524 C 314.44855,129.5524 315.7871,128.9805 316.83875,127.83765 C 317.8904,126.6948 318.4148,125.07315 318.4148,122.9727 C 318.4148,121.6446 318.1906,120.48465 317.74125,119.4938 C 317.29095,118.50295 316.63355,117.7344 315.76905,117.1891 C 314.90455,116.6438 313.9327,116.37115 312.85635,116.37115 C 311.32685,116.37115 310.01015,116.8965 308.9072,117.94625 C 307.80425,118.996 307.2523,120.7497 307.2523,123.2064 z"
   style="fill:#231f20" /><path
   id="path65"
   d="M 323.503,131.1256 L 323.503,114.797 L 325.66995,114.797 L 325.66995,121.50685 L 334.1164,121.50685 L 334.1164,114.797 L 336.28335,114.797 L 336.28335,131.1256 L 334.1164,131.1256 L 334.1164,123.4363 L 325.66995,123.4363 L 325.66995,131.1256 L 323.503,131.1256 z"
   style="fill:#231f20" />
<path
   style="fill:#231f20"
   d="M 271.29195,112.3631 L 269.67695,112.3631 L 269.67695,87.8531 L 270.48445,84.4331 L 271.29195,83.9581 L 271.29195,112.3631 z"
   id="polygon67" />
<path
   style="fill:#231f20"
   d="M 97.39445,116.6856 L 100.10195,119.10905 L 99.29445,121.52965 L 48.42195,121.52965 L 51.08195,119.10905 L 51.8885,116.6856 L 97.39445,116.6856 z"
   id="polygon69" />
<path
   style="fill:#231f20"
   d="M 17.26195,86.5706 L 16.45445,84.4331 L 17.64195,84.4331 L 50.27445,113.5506 L 51.08195,119.10905 L 48.42195,121.52965 L 17.26195,86.5706 z"
   id="polygon71" />
<path
   style="fill:#231f20"
   d="M 50.27445,49.4731 L 51.08195,49.8056 L 51.41445,50.6131 L 17.64195,84.4331 L 16.45445,84.4331 L 15.64695,84.1006 L 50.27445,49.4731 z"
   id="polygon73" />
<path
   id="path77"
   d="M 92.31765,50.8354 C 92.31765,48.12505 93.04535,46.00465 94.50075,44.4723 C 95.95615,42.939 97.83525,42.17235 100.1371,42.17235 C 101.64475,42.17235 103.00325,42.5324 104.21355,43.2525 C 105.42385,43.97355 106.3463,44.97675 106.98185,46.26495 C 107.6174,47.55315 107.93375,49.01425 107.93375,50.64635 C 107.93375,52.3022 107.59935,53.78325 106.9315,55.0895 C 106.26365,56.39575 105.3165,57.38565 104.091,58.0573 C 102.8655,58.72895 101.54405,59.06525 100.1257,59.06525 C 98.5886,59.06525 97.2149,58.6938 96.0046,57.95185 C 94.7943,57.2099 93.87755,56.1953 93.2534,54.91185 C 92.62925,53.6284 92.31765,52.26895 92.31765,50.8354 z M 94.54445,50.8639 C 94.54445,52.8304 95.0736,54.37985 96.1319,55.51225 C 97.1902,56.64465 98.5183,57.2099 100.1143,57.2099 C 101.7407,57.2099 103.07925,56.638 104.1309,55.49515 C 105.1816,54.3523 105.70695,52.73065 105.70695,50.6302 C 105.70695,49.3021 105.48275,48.14215 105.0334,47.1513 C 104.58405,46.16045 103.92665,45.3919 103.0612,44.8466 C 102.19575,44.3013 101.22485,44.02865 100.1485,44.02865 C 98.619,44.02865 97.3023,44.554 96.19935,45.60375 C 95.0964,46.6535 94.54445,48.4072 94.54445,50.8639 z"
   style="fill:#231f20" />
<path
   style="fill:#231f20"
   d="M 90.07945,48.9981 L 90.07945,50.6131 L 51.41445,50.6131 L 51.08195,49.8056 L 51.8885,48.9981 L 90.07945,48.9981 z"
   id="polygon79" />
<path
   style="fill:#231f20"
   d="M 135.39445,83.9581 L 134.77695,84.4331 L 133.58945,84.4331 L 107.41695,58.2131 L 108.55695,57.0731 L 135.39445,83.9581 z"
   id="polygon81" />
<path
   style="fill:#231f20"
   d="M 100.90945,123.66715 L 100.10195,119.10905 L 97.39445,116.6856 L 133.58945,84.4331 L 134.77695,84.4331 L 134.63445,85.8106 L 100.90945,123.66715 z"
   id="polygon83" />
<path
   id="path87"
   d="M 43.29765,82.4229 C 43.29765,79.71255 44.02535,77.59215 45.48075,76.0598 C 46.93615,74.5265 48.81525,73.75985 51.1171,73.75985 C 52.62475,73.75985 53.98325,74.1199 55.19355,74.84 C 56.40385,75.56105 57.3263,76.56425 57.96185,77.85245 C 58.5974,79.14065 58.91375,80.60175 58.91375,82.23385 C 58.91375,83.8897 58.57935,85.37075 57.9115,86.677 C 57.24365,87.98325 56.2965,88.97315 55.071,89.6448 C 53.8455,90.31645 52.52405,90.65275 51.1057,90.65275 C 49.5686,90.65275 48.1949,90.2813 46.9846,89.53935 C 45.7743,88.7974 44.85755,87.7828 44.2334,86.49935 C 43.60925,85.2159 43.29765,83.85645 43.29765,82.4229 z M 45.52445,82.4514 C 45.52445,84.4179 46.0536,85.96735 47.1119,87.09975 C 48.1702,88.23215 49.4983,88.7974 51.0943,88.7974 C 52.7207,88.7974 54.05925,88.2255 55.1109,87.08265 C 56.1616,85.9398 56.68695,84.31815 56.68695,82.2177 C 56.68695,80.8896 56.46275,79.72965 56.0134,78.7388 C 55.56405,77.74795 54.90665,76.9794 54.0412,76.4341 C 53.17575,75.8888 52.20485,75.61615 51.1285,75.61615 C 49.599,75.61615 48.2823,76.1415 47.17935,77.19125 C 46.0764,78.241 45.52445,79.9947 45.52445,82.4514 z"
   style="fill:#231f20" /><path
   id="path89"
   d="M 61.7742,90.3706 L 61.7742,74.042 L 63.94115,74.042 L 63.94115,80.75185 L 72.3876,80.75185 L 72.3876,74.042 L 74.55455,74.042 L 74.55455,90.3706 L 72.3876,90.3706 L 72.3876,82.6813 L 63.94115,82.6813 L 63.94115,90.3706 L 61.7742,90.3706 z"
   style="fill:#231f20" />
<path
   style="fill:#231f20"
   d="M 50.27445,92.79215 L 51.8885,92.79215 L 51.8885,116.6856 L 51.08195,119.10905 L 50.27445,113.5506 L 50.27445,92.79215 z"
   id="polygon91" />
<path
   id="path95"
   d="M 92.31765,157.85385 C 92.31765,155.1435 93.04535,153.0231 94.50075,151.49075 C 95.95615,149.95745 97.83525,149.1908 100.1371,149.1908 C 101.64475,149.1908 103.00325,149.55085 104.21355,150.27095 C 105.42385,150.992 106.3463,151.9952 106.98185,153.2834 C 107.6174,154.5716 107.93375,156.0327 107.93375,157.6648 C 107.93375,159.32065 107.59935,160.8017 106.9315,162.10795 C 106.26365,163.4142 105.3165,164.4041 104.091,165.07575 C 102.8655,165.7474 101.54405,166.0837 100.1257,166.0837 C 98.5886,166.0837 97.2149,165.71225 96.0046,164.9703 C 94.7943,164.22835 93.87755,163.21375 93.2534,161.9303 C 92.62925,160.64685 92.31765,159.2874 92.31765,157.85385 z M 94.54445,157.8814 C 94.54445,159.8479 95.0736,161.39735 96.1319,162.52975 C 97.1902,163.66215 98.5183,164.2274 100.1143,164.2274 C 101.7407,164.2274 103.07925,163.6555 104.1309,162.51265 C 105.1816,161.3698 105.70695,159.74815 105.70695,157.6477 C 105.70695,156.3196 105.48275,155.15965 105.0334,154.1688 C 104.58405,153.17795 103.92665,152.4094 103.0612,151.8641 C 102.19575,151.3188 101.22485,151.04615 100.1485,151.04615 C 98.619,151.04615 97.3023,151.5715 96.19935,152.62125 C 95.0964,153.671 94.54445,155.4247 94.54445,157.8814 z"
   style="fill:#231f20" /><path
   id="path97"
   d="M 110.7942,165.8006 L 110.7942,149.472 L 112.96115,149.472 L 112.96115,156.18185 L 121.4076,156.18185 L 121.4076,149.472 L 123.57455,149.472 L 123.57455,165.8006 L 121.4076,165.8006 L 121.4076,158.1113 L 112.96115,158.1113 L 112.96115,165.8006 L 110.7942,165.8006 z"
   style="fill:#231f20" />
<path
   style="fill:#231f20"
   d="M 100.90945,146.9906 L 99.29445,146.9906 L 99.29445,121.52965 L 100.10195,119.10905 L 100.90945,123.66715 L 100.90945,146.9906 z"
   id="polygon99" />
<path
   style="fill:#231f20"
   d="M 149.35945,108.0881 L 147.93445,108.89655 L 134.63445,85.8106 L 134.77695,84.4331 L 135.39445,83.9581 L 149.35945,108.0881 z"
   id="polygon101" />
<path
   id="path105"
   d="M 8.62265,123.17885 C 8.62265,120.4685 9.35035,118.3481 10.80575,116.81575 C 12.26115,115.28245 14.14025,114.5158 16.4421,114.5158 C 17.94975,114.5158 19.30825,114.87585 20.51855,115.59595 C 21.72885,116.317 22.6513,117.3202 23.28685,118.6084 C 23.9224,119.8966 24.23875,121.3577 24.23875,122.9898 C 24.23875,124.64565 23.90435,126.1267 23.2365,127.43295 C 22.56865,128.7392 21.6215,129.7291 20.396,130.40075 C 19.1705,131.0724 17.84905,131.4087 16.4307,131.4087 C 14.8936,131.4087 13.5199,131.03725 12.3096,130.2953 C 11.0993,129.55335 10.18255,128.53875 9.5584,127.2553 C 8.93425,125.97185 8.62265,124.6124 8.62265,123.17885 z M 10.84945,123.2064 C 10.84945,125.1729 11.3786,126.72235 12.4369,127.85475 C 13.4952,128.98715 14.8233,129.5524 16.4193,129.5524 C 18.0457,129.5524 19.38425,128.9805 20.4359,127.83765 C 21.4866,126.6948 22.01195,125.07315 22.01195,122.9727 C 22.01195,121.6446 21.78775,120.48465 21.3384,119.4938 C 20.88905,118.50295 20.23165,117.7344 19.3662,117.1891 C 18.50075,116.6438 17.52985,116.37115 16.4535,116.37115 C 14.924,116.37115 13.6073,116.8965 12.50435,117.94625 C 11.4014,118.996 10.84945,120.7497 10.84945,123.2064 z"
   style="fill:#231f20" /><path
   id="path107"
   d="M 27.0992,131.1256 L 27.0992,114.797 L 29.26615,114.797 L 29.26615,121.50685 L 37.7126,121.50685 L 37.7126,114.797 L 39.87955,114.797 L 39.87955,131.1256 L 37.7126,131.1256 L 37.7126,123.4363 L 29.26615,123.4363 L 29.26615,131.1256 L 27.0992,131.1256 z"
   style="fill:#231f20" />
<path
   style="fill:#231f20"
   d="M 17.26195,112.3631 L 15.64695,112.3631 L 15.64695,84.1006 L 16.45445,84.4331 L 17.26195,86.5706 L 17.26195,112.3631 z"
   id="polygon109" />
<path
   id="path113"
   d="M 56.30125,15.34245 L 58.4682,15.88775 C 58.016,17.66425 57.20185,19.01895 56.02765,19.9509 C 54.8525,20.88285 53.41515,21.35025 51.7175,21.35025 C 49.96,21.35025 48.5312,20.9921 47.43015,20.27485 C 46.3291,19.55855 45.4912,18.51925 44.91645,17.16075 C 44.3417,15.8013 44.0548,14.34115 44.0548,12.7822 C 44.0548,11.0817 44.37875,9.59685 45.0276,8.3305 C 45.67645,7.06415 46.5989,6.10085 47.79685,5.4444 C 48.9929,4.78795 50.31055,4.4583 51.74885,4.4583 C 53.38,4.4583 54.75085,4.8744 55.86235,5.7066 C 56.9748,6.53975 57.74905,7.7092 58.18605,9.21875 L 56.06375,9.7194 C 55.68565,8.5319 55.1375,7.6674 54.4193,7.1259 C 53.70015,6.5844 52.79575,6.31365 51.70705,6.31365 C 50.45495,6.31365 49.40805,6.61385 48.56635,7.2152 C 47.7256,7.81655 47.1347,8.6231 46.79365,9.63675 C 46.4526,10.6504 46.28255,11.69445 46.28255,12.7708 C 46.28255,14.15875 46.48395,15.37 46.8877,16.4055 C 47.29145,17.441 47.91845,18.2143 48.7706,18.72635 C 49.62275,19.2384 50.54425,19.4949 51.537,19.4949 C 52.74445,19.4949 53.7657,19.14625 54.60265,18.448 C 55.4396,17.74975 56.0039,16.7152 56.30125,15.34245 z"
   style="fill:#231f20" /><path
   id="path115"
   d="M 61.2175,21.0681 L 61.2175,4.74045 L 63.38445,4.74045 L 63.38445,11.4503 L 71.8309,11.4503 L 71.8309,4.74045 L 73.99785,4.74045 L 73.99785,21.06905 L 71.8309,21.06905 L 71.8309,13.37975 L 63.38445,13.37975 L 63.38445,21.06905 L 61.2175,21.06905 L 61.2175,21.0681 z"
   style="fill:#231f20" />
<path
   id="path119"
   d="M 84.36235,23.90385 L 84.36235,25.34405 L 76.2579,25.34405 C 76.2465,24.9821 76.3054,24.6344 76.4346,24.3 C 76.6417,23.749 76.97325,23.20655 77.4302,22.67265 C 77.8862,22.13875 78.5417,21.5222 79.3967,20.823 C 80.7229,19.72765 81.6216,18.8622 82.0947,18.2257 C 82.5678,17.5892 82.80435,16.98595 82.80435,16.41785 C 82.80435,15.82315 82.5906,15.3225 82.1631,14.91305 C 81.7356,14.50455 81.17795,14.3003 80.4911,14.3003 C 79.7634,14.3003 79.18295,14.51785 78.7469,14.9539 C 78.31085,15.38995 78.09045,15.9932 78.08475,16.76365 L 76.541,16.60025 C 76.64645,15.44505 77.04545,14.56535 77.738,13.96115 C 78.4296,13.35505 79.3587,13.05295 80.5253,13.05295 C 81.70235,13.05295 82.6343,13.3788 83.3202,14.0305 C 84.0061,14.6822 84.34905,15.4897 84.34905,16.453 C 84.34905,16.9432 84.24835,17.42485 84.0479,17.89795 C 83.84745,18.37105 83.51305,18.8698 83.04755,19.39325 C 82.5811,19.9167 81.80875,20.6349 80.72955,21.54785 C 79.8261,22.30595 79.24565,22.81895 78.9882,23.0897 C 78.73075,23.35855 78.517,23.63025 78.34885,23.9029 L 84.36235,23.9029 L 84.36235,23.90385 z"
   style="fill:#231f20" />
<path
   id="path123"
   d="M 85.623,13.12135 C 85.623,10.411 86.3507,8.2906 87.8061,6.75825 C 89.2615,5.22495 91.1406,4.4583 93.44245,4.4583 C 94.9501,4.4583 96.3086,4.81835 97.5189,5.53845 C 98.7292,6.2595 99.65165,7.2627 100.2872,8.5509 C 100.92275,9.8391 101.2391,11.3002 101.2391,12.9323 C 101.2391,14.58815 100.9047,16.0692 100.23685,17.37545 C 99.569,18.6817 98.62185,19.6716 97.39635,20.34325 C 96.17085,21.0149 94.8494,21.3512 93.43105,21.3512 C 91.89395,21.3512 90.52025,20.97975 89.30995,20.2378 C 88.09965,19.49585 87.1829,18.48125 86.55875,17.1978 C 85.9346,15.91435 85.623,14.5549 85.623,13.12135 z M 87.8498,13.1489 C 87.8498,15.1154 88.37895,16.66485 89.43725,17.79725 C 90.49555,18.92965 91.82365,19.4949 93.41965,19.4949 C 95.04605,19.4949 96.3846,18.923 97.43625,17.78015 C 98.48695,16.6373 99.0123,15.01565 99.0123,12.9152 C 99.0123,11.5871 98.7881,10.42715 98.33875,9.4363 C 97.8894,8.44545 97.232,7.6769 96.36655,7.1316 C 95.5011,6.5863 94.5302,6.31365 93.45385,6.31365 C 91.92435,6.31365 90.60765,6.839 89.5047,7.88875 C 88.40175,8.9385 87.8498,10.69315 87.8498,13.1489 z"
   style="fill:#231f20" /><path
   id="path125"
   d="M 104.09955,21.0681 L 104.09955,4.74045 L 106.2665,4.74045 L 106.2665,11.4503 L 114.71295,11.4503 L 114.71295,4.74045 L 116.8799,4.74045 L 116.8799,21.06905 L 114.71295,21.06905 L 114.71295,13.37975 L 106.2665,13.37975 L 106.2665,21.06905 L 104.09955,21.06905 L 104.09955,21.0681 z"
   style="fill:#231f20" />
<path
   style="fill:#231f20"
   d="M 50.27445,23.4431 L 51.8885,23.4431 L 51.8885,48.9981 L 51.08195,49.8056 L 50.27445,49.4731 L 50.27445,23.4431 z"
   id="polygon127" />
<path
   id="path131"
   d="M 145.80265,118.14385 C 145.80265,115.4335 146.53035,113.3131 147.98575,111.78075 C 149.44115,110.24745 151.32025,109.4808 153.6221,109.4808 C 155.12975,109.4808 156.48825,109.84085 157.69855,110.56095 C 158.90885,111.282 159.8313,112.2852 160.46685,113.5734 C 161.1024,114.8616 161.41875,116.3227 161.41875,117.9548 C 161.41875,119.61065 161.08435,121.0917 160.4165,122.39795 C 159.74865,123.7042 158.8015,124.6941 157.576,125.36575 C 156.3505,126.0374 155.02905,126.3737 153.6107,126.3737 C 152.0736,126.3737 150.6999,126.00225 149.4896,125.2603 C 148.2793,124.51835 147.36255,123.50375 146.7384,122.2203 C 146.11425,120.93685 145.80265,119.5774 145.80265,118.14385 z M 148.02945,118.1714 C 148.02945,120.1379 148.5586,121.68735 149.6169,122.81975 C 150.6752,123.95215 152.0033,124.5174 153.5993,124.5174 C 155.2257,124.5174 156.56425,123.9455 157.6159,122.80265 C 158.6666,121.6598 159.19195,120.03815 159.19195,117.9377 C 159.19195,116.6096 158.96775,115.44965 158.5184,114.4588 C 158.06905,113.46795 157.41165,112.6994 156.5462,112.1541 C 155.68075,111.6088 154.70985,111.33615 153.6335,111.33615 C 152.104,111.33615 150.7873,111.8615 149.68435,112.91125 C 148.5814,113.961 148.02945,115.7147 148.02945,118.1714 z"
   style="fill:#231f20" />
<path
   style="fill:#231f20"
   d="M 159.28695,108.89655 L 157.90945,108.0881 L 171.68445,84.2431 L 172.49195,84.4331 L 172.44445,86.1431 L 159.28695,108.89655 z"
   id="polygon133" />
</svg>